<svg width="207" height="46" viewBox="0 0 207 46" fill="none" xmlns="http://www.w3.org/2000/svg">
<path d="M101.805 4.31439C91.3858 4.31439 83.5273 12.2535 83.5273 22.7805C83.5273 31.9869 90.1262 41.3075 102.734 41.3075C105.01 41.3075 107.129 40.9764 109.131 40.299L108.096 31.4275C106.41 32.4018 104.599 32.8965 102.669 32.8965C98.0608 32.8965 94.4874 30.4608 93.1174 26.5521H120.323V24.9499C120.323 12.8015 112.705 4.31439 101.798 4.31439H101.805ZM93.0755 18.7577C94.084 15.6749 96.7555 12.7216 101.745 12.7216C105.954 12.7216 109.314 15.1307 110.452 18.7577H93.0755Z" fill="#EBEBEB"/>
<path d="M159.038 4.31513C154.342 4.31513 150.605 5.8489 148.253 8.68428C145.132 4.8137 141.304 4.31513 138.541 4.31513C136.052 4.31513 133.179 4.92407 130.938 6.45023V4.31132H121.976V41.3045H130.938V19.7404C130.938 15.4549 133.427 12.8936 137.59 12.8936C141.133 12.8936 143.169 15.2951 143.169 19.4854V41.3007H152.131V19.7365C152.131 15.4511 154.62 12.8898 158.783 12.8898C162.326 12.8898 164.362 15.2913 164.362 19.4816V41.2968H173.324V18.846C173.324 10.0125 167.719 4.30371 159.038 4.30371V4.31513Z" fill="#EBEBEB"/>
<path d="M68.9563 32.87L81.9561 11.5875C83.7752 7.78543 81.8648 4.4629 77.1649 4.3335H56.3789L58.4606 12.7673H70.8134L56.6948 35.7168L57.7375 41.3038H86.3287L84.2471 32.8662H68.9601L68.9563 32.87Z" fill="#EBEBEB"/>
<path d="M190.829 4.36849C187.789 4.36849 184.733 4.60826 181.647 5.6054L183.066 13.3009C185.566 12.4598 188.253 12.2847 190.529 12.2847C195.761 12.2847 198.414 14.6824 198.414 17.8641V18.0887C196.009 16.7148 193.227 15.9993 190.224 15.9993C179.74 15.9993 174.968 22.4312 174.968 28.4102C174.968 35.4815 180.433 40.57 188.474 41.2322L188.428 41.2741H189.086C189.482 41.2969 189.882 41.3045 190.285 41.3045C190.426 41.3045 190.559 41.2969 190.696 41.2931V41.3045H202.113C202.246 41.3045 202.398 41.2931 202.566 41.2741H205.462C206.31 41.2741 206.999 40.5852 206.999 39.7327V35.6604V24.2732V17.4379C206.999 9.97074 200.652 4.36469 190.833 4.36469L190.829 4.36849ZM198.65 32.7413C198.65 33.571 197.976 34.2484 197.147 34.2484H191.058H190.784C190.73 34.2484 190.681 34.2484 190.639 34.2408C190.388 34.2294 190.144 34.2104 189.901 34.1837C189.661 34.1571 189.421 34.1228 189.185 34.0772C189.185 34.0772 189.185 34.0772 189.182 34.0772C189.086 34.0581 188.991 34.0391 188.896 34.0201C188.873 34.0125 188.847 34.0087 188.824 34.0049C188.74 33.9858 188.656 33.963 188.573 33.944C188.542 33.9364 188.508 33.9287 188.478 33.9211C188.401 33.8983 188.322 33.8793 188.245 33.8564C188.207 33.845 188.173 33.8374 188.135 33.8222C188.063 33.7993 187.99 33.7765 187.922 33.7537C187.884 33.7423 187.842 33.7308 187.804 33.7156C187.735 33.6928 187.671 33.6661 187.602 33.6433C187.56 33.6281 187.522 33.6129 187.48 33.5976C187.416 33.571 187.351 33.5443 187.29 33.5177C187.248 33.5025 187.206 33.4835 187.168 33.4644C187.108 33.4378 187.047 33.4111 186.99 33.3845C186.948 33.3655 186.906 33.3464 186.864 33.3274C186.807 33.297 186.75 33.2703 186.693 33.2399C186.651 33.217 186.613 33.198 186.571 33.1752C186.514 33.1447 186.461 33.1143 186.407 33.0876C186.365 33.0648 186.327 33.042 186.286 33.0153C186.236 32.9849 186.183 32.9544 186.133 32.924C186.091 32.8974 186.053 32.8707 186.012 32.8479C185.962 32.8174 185.913 32.7832 185.867 32.7489C185.825 32.7223 185.787 32.6956 185.749 32.669C185.703 32.6347 185.658 32.6005 185.612 32.5662C185.574 32.5358 185.536 32.5092 185.498 32.4787C185.452 32.4445 185.41 32.4102 185.368 32.3759C185.33 32.3455 185.292 32.3151 185.258 32.2846C185.22 32.2504 185.178 32.2161 185.136 32.178C185.102 32.1438 185.064 32.1095 185.03 32.0791C184.992 32.0448 184.954 32.0068 184.919 31.9687C184.885 31.9345 184.851 31.9002 184.817 31.8622C184.782 31.8279 184.744 31.7898 184.714 31.7518C184.683 31.7137 184.649 31.6795 184.619 31.6414C184.588 31.6034 184.554 31.5653 184.524 31.5272C184.493 31.4892 184.463 31.4511 184.436 31.4131C184.406 31.375 184.379 31.3369 184.349 31.2989C184.318 31.2608 184.291 31.219 184.265 31.1809C184.238 31.1428 184.211 31.1048 184.185 31.0629C184.158 31.0211 184.132 30.9792 184.109 30.9373C184.086 30.8993 184.059 30.8574 184.036 30.8193C184.014 30.7775 183.991 30.7318 183.968 30.6899C183.949 30.6519 183.926 30.61 183.907 30.572C183.884 30.5263 183.865 30.4844 183.846 30.4388C183.827 30.4007 183.808 30.3588 183.793 30.317C183.774 30.2713 183.759 30.2256 183.74 30.1761C183.724 30.1343 183.709 30.0962 183.694 30.0544C183.679 30.0049 183.663 29.9592 183.648 29.9097C183.637 29.8679 183.622 29.8298 183.614 29.7918C183.599 29.7423 183.591 29.689 183.576 29.6395C183.565 29.6015 183.557 29.5634 183.549 29.5215C183.538 29.4683 183.53 29.4112 183.519 29.3579C183.511 29.3198 183.507 29.2856 183.5 29.2475C183.492 29.1866 183.488 29.1257 183.481 29.061C183.481 29.0306 183.473 29.0001 183.473 28.9659C183.466 28.8707 183.462 28.7794 183.462 28.6842C183.462 25.6129 186.864 23.1201 191.062 23.1201C191.191 23.1201 191.32 23.1201 191.45 23.1277C191.492 23.1277 191.537 23.1315 191.579 23.1353C191.663 23.1391 191.747 23.1429 191.83 23.1505C191.884 23.1543 191.937 23.1619 191.99 23.1657C192.062 23.1733 192.135 23.1771 192.207 23.1848C192.268 23.1924 192.329 23.2 192.386 23.2076C192.451 23.2152 192.515 23.2228 192.58 23.2342C192.645 23.2456 192.706 23.2571 192.77 23.2647C192.831 23.2723 192.888 23.2837 192.945 23.2951C193.014 23.3065 193.078 23.3218 193.143 23.337C193.196 23.3484 193.25 23.356 193.303 23.3712C193.372 23.3865 193.44 23.4055 193.508 23.4207C193.558 23.4321 193.604 23.4436 193.653 23.455C193.725 23.474 193.798 23.4968 193.866 23.5159C193.908 23.5273 193.954 23.5387 193.996 23.5539C194.068 23.5768 194.144 23.5996 194.216 23.6262C194.254 23.6415 194.292 23.6529 194.33 23.6643C194.407 23.6909 194.483 23.7176 194.555 23.748C194.585 23.7594 194.62 23.7709 194.654 23.7861C194.734 23.8165 194.81 23.8508 194.882 23.8812C194.913 23.8926 194.939 23.9041 194.97 23.9155C195.05 23.9497 195.126 23.9878 195.206 24.0259C195.229 24.0373 195.255 24.0487 195.278 24.0601C195.358 24.0982 195.438 24.14 195.514 24.1819C195.533 24.1933 195.552 24.2009 195.571 24.2123C195.651 24.258 195.731 24.3037 195.811 24.3493C195.826 24.357 195.841 24.3684 195.857 24.376C195.936 24.4255 196.016 24.4749 196.096 24.5282C196.108 24.5358 196.119 24.5434 196.131 24.5473C196.21 24.6005 196.29 24.6538 196.366 24.7109C196.374 24.7185 196.382 24.7223 196.389 24.7299C196.469 24.787 196.545 24.8479 196.625 24.905C196.633 24.9088 196.637 24.9126 196.64 24.9164C196.72 24.9773 196.797 25.042 196.869 25.1067L196.876 25.1143C196.953 25.1828 197.029 25.2475 197.097 25.3198C198.049 26.2371 198.619 27.3712 198.642 28.6043C198.642 28.631 198.642 28.6576 198.642 28.6881V32.7451L198.65 32.7413Z" fill="#EBEBEB"/>
<path fill-rule="evenodd" clip-rule="evenodd" d="M29.8282 41.4881C30.8443 44.548 34.1741 46.2111 37.2528 45.2026C40.3315 44.194 42.006 40.8829 40.9899 37.8268L38.3488 29.8801L28.4277 37.2788L29.8282 41.4881Z" fill="#F0CA30"/>
<path fill-rule="evenodd" clip-rule="evenodd" d="M11.394 25.7046L8.8252 33.4496L19.1992 25.7084L11.394 25.7046Z" fill="#F0CA30"/>
<path fill-rule="evenodd" clip-rule="evenodd" d="M29.786 4.11004C29.2113 2.37836 27.8071 0.996829 26.0375 0.41453C26.0184 0.406918 26.0032 0.399307 25.9804 0.391695L25.9423 0.380277C25.6721 0.296548 25.3715 0.231848 25.0328 0.182371C25.0062 0.182371 24.9833 0.17476 24.9567 0.167148C24.9034 0.15573 24.8463 0.144313 24.774 0.136701C24.6066 0.121477 24.4506 0.121477 24.2983 0.125283H24.1766H24.051C23.8987 0.125283 23.7389 0.121477 23.5715 0.136701C23.503 0.144313 23.4421 0.15573 23.3926 0.167148C23.366 0.170954 23.3431 0.178566 23.3203 0.182371C22.9778 0.231848 22.681 0.296548 22.407 0.380277L22.3651 0.391695C22.3651 0.391695 22.3309 0.403112 22.3118 0.410724C20.5384 0.996829 19.138 2.37456 18.5633 4.10623L16.3066 10.9073L32.0541 10.9188L29.7898 4.10623L29.786 4.11004Z" fill="#F0CA30"/>
<path fill-rule="evenodd" clip-rule="evenodd" d="M16.4058 44.3457L44.8791 23.1051C46.3442 22.0128 47.2119 20.2469 47.2081 18.3858C47.2081 18.3668 47.2081 18.3478 47.2081 18.3249V18.2869C47.2005 18.0014 47.17 17.697 47.1092 17.3582C47.1053 17.3316 47.1015 17.3088 47.0977 17.2821C47.0901 17.2288 47.0863 17.1679 47.0711 17.0994C47.033 16.9358 46.9836 16.7874 46.9341 16.6427L46.896 16.5286L46.858 16.4106C46.8123 16.2659 46.7628 16.1137 46.6943 15.9577C46.6677 15.8968 46.6373 15.8435 46.6068 15.7978C46.5954 15.775 46.5802 15.7522 46.5726 15.7331C46.4165 15.4248 46.2605 15.1622 46.0969 14.9263L46.074 14.892C46.074 14.892 46.0512 14.8616 46.0398 14.8502C44.9286 13.3506 43.178 12.4563 41.3513 12.4563L5.82636 12.4334C2.60305 12.4258 -0.0113795 15.0595 3.72491e-05 18.2983C3.72491e-05 18.9415 0.106593 19.558 0.296871 20.1365C1.07321 22.4809 3.27663 24.1746 5.86061 24.1784L23.7772 24.1898L9.41501 34.9033C6.83103 36.8291 6.29825 40.517 8.22387 43.1202C10.1495 45.7234 13.8181 46.2753 16.402 44.3495L16.4058 44.3457Z" fill="#F0CA30"/>
</svg>
